<?xml version="1.0" encoding="UTF-8" standalone="no"?><!DOCTYPE svg PUBLIC "-//W3C//DTD SVG 1.1//EN" "http://www.w3.org/Graphics/SVG/1.1/DTD/svg11.dtd"><svg width="100%" height="100%" viewBox="0 0 13750 10625" version="1.1" xmlns="http://www.w3.org/2000/svg" xmlns:xlink="http://www.w3.org/1999/xlink" xml:space="preserve" xmlns:serif="http://www.serif.com/" style="fill-rule:evenodd;clip-rule:evenodd;"><path id="Floor-Outline" serif:id="Floor Outline" d="M2734.77,5906.25l756.25,-6.25l162.325,475l5126.33,0l0,2548.96l3930.1,0l0,-2964.64l-167.204,-3.592l-0.104,-85.729l80.033,0l-60,-537.971l156.409,-19.529l-234.134,-1867.05l-156.25,0l0,-257.95l-62.5,0l0,-2403.82l-3515.09,0l-0,2064.08l-5858.58,-0l-2.883,596.733l-939.687,1.25l318.541,857.121l-90.816,32.133l557.275,1571.25l-0.021,0Z" style="fill:none;fill-rule:nonzero;stroke:#231f20;stroke-width:17.38px;"/><g id="BI-2" serif:id="BI 2"><path id="PATH_418" d="M9346.58,5265.83l0,900.475" style="fill:none;stroke:#231f20;stroke-width:17.38px;"/><g id="_4C162" serif:id="4C162"><path id="PATH_420" d="M9580.71,6167.17l-234.095,-0" style="fill:none;stroke:#231f20;stroke-width:17.38px;"/><path id="PATH_421" d="M9580.71,5942.21l-234.095,0" style="fill:none;stroke:#231f20;stroke-width:17.38px;"/></g><g id="_4C161" serif:id="4C161"><path id="PATH_423" d="M9580.71,5942.21l-234.095,0" style="fill:none;stroke:#231f20;stroke-width:17.38px;"/><path id="PATH_424" d="M9580.71,5717.25l-234.095,0" style="fill:none;stroke:#231f20;stroke-width:17.38px;"/></g><g id="_4C160" serif:id="4C160"><path id="PATH_426" d="M9580.71,5717.25l-234.095,0" style="fill:none;stroke:#231f20;stroke-width:17.38px;"/><path id="PATH_427" d="M9580.71,5487.79l-234.095,-0" style="fill:none;stroke:#231f20;stroke-width:17.38px;"/></g><g id="_4C159" serif:id="4C159"><path id="PATH_429" d="M9580.71,5487.79l-234.095,-0" style="fill:none;stroke:#231f20;stroke-width:17.38px;"/><path id="PATH_430" d="M9580.71,5265.83l-234.095,0" style="fill:none;stroke:#231f20;stroke-width:17.38px;"/></g><g id="_4C163" serif:id="4C163"><path id="PATH_432" d="M9346.58,5265.83l-234.1,0" style="fill:none;stroke:#231f20;stroke-width:17.38px;"/><path id="PATH_433" d="M9346.58,5487.79l-234.1,-0" style="fill:none;stroke:#231f20;stroke-width:17.38px;"/></g><g id="_4C164" serif:id="4C164"><path id="PATH_435" d="M9346.58,5487.79l-234.1,-0" style="fill:none;stroke:#231f20;stroke-width:17.38px;"/><path id="PATH_436" d="M9346.58,5717.25l-234.1,0" style="fill:none;stroke:#231f20;stroke-width:17.38px;"/></g><g id="_4C165" serif:id="4C165"><path id="PATH_438" d="M9346.58,5717.25l-234.1,0" style="fill:none;stroke:#231f20;stroke-width:17.38px;"/><path id="PATH_439" d="M9346.58,5942.21l-234.1,0" style="fill:none;stroke:#231f20;stroke-width:17.38px;"/></g><g id="_4C166" serif:id="4C166"><path id="PATH_441" d="M9346.58,5942.21l-234.1,0" style="fill:none;stroke:#231f20;stroke-width:17.38px;"/><path id="PATH_442" d="M9346.58,6167.17l-234.1,-0" style="fill:none;stroke:#231f20;stroke-width:17.38px;"/></g></g><g id="BI-1" serif:id="BI 1"><g id="_4C158" serif:id="4C158"><path id="PATH_454" d="M9969,5948.88l0,232.171" style="fill:none;fill-rule:nonzero;stroke:#231f20;stroke-width:17.38px;"/><path id="PATH_455" d="M9744.08,5952.17l226.25,-0" style="fill:none;fill-rule:nonzero;stroke:#231f20;stroke-width:17.38px;"/><path id="PATH_456" d="M9744.08,6180.08l226.25,0" style="fill:none;fill-rule:nonzero;stroke:#231f20;stroke-width:17.38px;"/></g><g id="_4C157" serif:id="4C157"><path id="PATH_458" d="M9969,5948.88l0,232.171" style="fill:none;fill-rule:nonzero;stroke:#231f20;stroke-width:17.38px;"/><path id="PATH_459" d="M9969.08,5952.17l226.25,-0" style="fill:none;fill-rule:nonzero;stroke:#231f20;stroke-width:17.38px;"/><path id="PATH_460" d="M9969.08,6180.08l226.25,0" style="fill:none;fill-rule:nonzero;stroke:#231f20;stroke-width:17.38px;"/></g></g><rect id="_4C156_O" serif:id="4C156_O" x="9739.92" y="5551.5" width="341.387" height="286.083" style="fill:none;stroke:#231f20;stroke-width:17.38px;"/><rect id="_4C155_O" serif:id="4C155_O" x="9739.92" y="5265.83" width="341.387" height="285.692" style="fill:none;stroke:#231f20;stroke-width:17.38px;"/><path id="_4C154_O" serif:id="4C154_O" d="M10326.3,5606.75l-32.97,-282.796l340.329,-39.675l32.971,282.792l-340.33,39.679Z" style="fill:none;stroke:#231f20;stroke-width:17.38px;"/><path id="_4C153_O" serif:id="4C153_O" d="M10360.3,5898.08l-33.954,-291.237l340.329,-39.679l33.954,291.237l-340.329,39.679Z" style="fill:none;stroke:#231f20;stroke-width:17.38px;"/><path id="_4C152_O" serif:id="4C152_O" d="M10393.8,6185.42l-33.5,-287.317l340.333,-39.679l33.496,287.317l-340.329,39.679Z" style="fill:none;stroke:#231f20;stroke-width:17.38px;"/><path id="_4C151_O" serif:id="4C151_O" d="M10734,6146.04l-33.771,-289.596l341.925,-39.871l33.771,289.596l-341.925,39.871Z" style="fill:none;stroke:#231f20;stroke-width:17.38px;"/><g id="Meeting-Rooms" serif:id="Meeting Rooms"><rect id="RECT_515" x="10011.7" y="4806.17" width="634.254" height="266.387" style="fill:#ffc82e;stroke:#231f20;stroke-width:17.38px;"/><rect id="RECT_369" x="10076.2" y="3289.93" width="387.638" height="699.792" style="fill:#ffc82e;stroke:#231f20;stroke-width:17.38px;"/><rect id="RECT_383" x="11200.1" y="4167.42" width="796.233" height="500.137" style="fill:#ffc82e;stroke:#231f20;stroke-width:17.38px;"/><path id="PATH_384" d="M12231.4,5426.58l332.95,-44.304l56.908,486.475l-52.879,1.267l-29.533,-0.154l-251.717,0.641l-55.729,-443.925Z" style="fill:#ffc82e;fill-rule:nonzero;stroke:#231f20;stroke-width:17.38px;"/><rect id="RECT_388" x="3188.68" y="3444.53" width="615.554" height="541.112" style="fill:#ffc82e;stroke:#231f20;stroke-width:17.38px;"/><rect id="RECT_390" x="8778.67" y="8533.71" width="1189.39" height="390.279" style="fill:#ffc82e;stroke:#231f20;stroke-width:17.38px;"/><rect id="RECT_408" x="11263.7" y="7109.92" width="282.638" height="345.071" style="fill:#ffc82e;stroke:#231f20;stroke-width:17.38px;"/><path id="La-Plata-Peak" serif:id="La Plata Peak" d="M10700.3,5856.62l-66.713,-572.308l342.204,-39.892l66.717,572.304l-342.208,39.896Z" style="fill:#ffc82e;stroke:#231f20;stroke-width:17.38px;"/><rect id="RECT_484" x="8751.17" y="783.679" width="1078.89" height="399.046" style="fill:#ffc82e;stroke:#231f20;stroke-width:17.38px;"/></g></svg>